# xmcd
#
# Track frame offsets: 
#        150
#        21521
#        44724
#        67711
#        85048
#        105571
#        130460
#        154939
#        176929
#        202318
#        223326
#        244533
#        265166
#        285084
#        305660
#        323636
#
# Disc length: 4560 seconds
#
# Revision: 40
# Processed by: cddbd v1.5.2PL0 Copyright (c) Steve Scherf et al.
# Submitted via: ExactAudioCopy v1.1
#
DISCID=ee11ce10
DTITLE=???? - Completely Recorded [Disc 1]
DYEAR=2004
DGENRE=J-Pop
TTITLE0=NG
TTITLE1=ANSWER
TTITLE2=???????
TTITLE3=???????
TTITLE4=?????????
TTITLE5=??????????????
TTITLE6=?????
TTITLE7=No.1
TTITLE8=????
TTITLE9=?????
TTITLE10=?????
TTITLE11=SPY
TTITLE12=SECRET HEAVEN
TTITLE13=COWBOY
TTITLE14=??????????????????
TTITLE15=??????? ('98 new version)
EXTD=YEAR: 2004
EXTT0=
EXTT1=
EXTT2=
EXTT3=
EXTT4=
EXTT5=
EXTT6=
EXTT7=
EXTT8=
EXTT9=
EXTT10=
EXTT11=
EXTT12=
EXTT13=
EXTT14=
EXTT15=
PLAYORDER=
